<?xml version="1.0" standalone="no"?>
<!DOCTYPE svg PUBLIC "-//W3C//DTD SVG 20010904//EN"
 "http://www.w3.org/TR/2001/REC-SVG-20010904/DTD/svg10.dtd">
<svg version="1.0" xmlns="http://www.w3.org/2000/svg"
 width="512.000000pt" height="512.000000pt" viewBox="0 0 512.000000 512.000000"
 preserveAspectRatio="xMidYMid meet">
<metadata>
Created by potrace 1.14, written by Peter Selinger 2001-2017
</metadata>
<g transform="translate(0.000000,512.000000) scale(0.100000,-0.100000)"
fill="#000000" stroke="none">
<path d="M1546 4950 c-16 -5 -40 -19 -54 -32 -53 -49 -52 -41 -52 -692 l0
-605 -57 -38 c-76 -50 -210 -183 -256 -255 -83 -130 -135 -263 -156 -396 -8
-51 -11 -432 -11 -1270 0 -658 2 -1207 4 -1219 7 -36 24 -61 63 -90 l36 -28
429 -3 428 -3 0 161 0 160 -320 0 -321 0 4 1113 c2 611 7 1128 11 1147 52 239
208 423 409 486 l57 18 0 618 0 618 240 0 240 0 0 -400 0 -400 160 0 161 0 -3
509 c-3 497 -4 510 -24 537 -11 15 -33 37 -48 48 -27 20 -40 21 -469 23 -243
1 -455 -2 -471 -7z"/>
<path d="M2335 3346 c-37 -17 -70 -52 -85 -90 -17 -47 -12 -784 6 -872 69
-332 288 -595 594 -716 65 -25 168 -54 183 -50 4 1 7 -218 7 -488 l0 -490
-240 0 -240 0 0 -160 0 -160 640 0 640 0 0 160 0 160 -240 0 -240 0 2 487 c3
479 3 488 23 491 46 7 212 67 264 95 245 132 428 373 487 638 19 86 22 176 21
519 -2 430 0 414 -76 466 l-35 24 -840 -1 c-681 0 -847 -2 -871 -13z m1505
-585 c-1 -256 -3 -287 -23 -363 -57 -212 -216 -379 -428 -449 -80 -26 -237
-33 -327 -14 -62 14 -185 67 -232 102 -74 54 -163 160 -201 239 -60 124 -67
170 -68 487 l-2 277 641 0 641 0 -1 -279z"/>
</g>
</svg>
